<svg width="14" height="8" viewBox="0 0 14 8" fill="none" xmlns="http://www.w3.org/2000/svg">
<path d="M0.398166 6.28833C0.0345154 6.62719 0.0144156 7.19668 0.353272 7.56033C0.692128 7.92398 1.26162 7.94408 1.62527 7.60522L0.398166 6.28833ZM6.88833 1.47084L7.50846 0.818579L6.89453 0.234902L6.27478 0.812395L6.88833 1.47084ZM12.028 7.59904C12.3882 7.94153 12.9579 7.92714 13.3003 7.5669C13.6428 7.20667 13.6284 6.637 13.2682 6.29452L12.028 7.59904ZM1.62527 7.60522L7.50189 2.12929L6.27478 0.812395L0.398166 6.28833L1.62527 7.60522ZM6.26821 2.12311L12.028 7.59904L13.2682 6.29452L7.50846 0.818579L6.26821 2.12311Z" fill="#1A1818"/>
</svg>
