<svg viewBox="0 0 8 14" fill="none" xmlns="http://www.w3.org/2000/svg">
<path d="M5.57362 11.4217C5.80676 11.6571 6.18666 11.659 6.42214 11.4259C6.65762 11.1927 6.65952 10.8129 6.42638 10.5774L5.57362 11.4217ZM2 6.95934L1.57788 6.53294L1.15146 6.95508L1.57362 7.38148L2 6.95934ZM6.42212 3.42591C6.65761 3.19278 6.65953 2.81289 6.4264 2.57739C6.19327 2.3419 5.81338 2.33998 5.57788 2.57311L6.42212 3.42591ZM6.42638 10.5774L2.42638 6.5372L1.57362 7.38148L5.57362 11.4217L6.42638 10.5774ZM2.42212 7.38574L6.42212 3.42591L5.57788 2.57311L1.57788 6.53294L2.42212 7.38574Z" fill="#9BAAAE"/>
</svg>
