<svg aria-hidden="true" style="position:absolute;width:0;height:0" xmlns="http://www.w3.org/2000/svg" overflow="hidden">
  <defs>
        <symbol id="icon-cross" viewBox="0 0 32 32">
      <path d="M32 3.223L28.777 0 16 12.777 3.223 0 0 3.223 12.777 16 0 28.777 3.223 32 16 19.223 28.777 32 32 28.777 19.223 16 32 3.223z"/>
    </symbol>
        <symbol id="icon-edit" viewBox="0 0 18 19" fill="none">
<path d="M11.8344 4.19876C12.0066 4.02682 12.211 3.89043 12.436 3.79738C12.661 3.70433 12.9021 3.65643 13.1456 3.65643C13.3891 3.65643 13.6303 3.70433 13.8553 3.79738C14.0802 3.89043 14.2847 4.02682 14.4569 4.19876C14.6291 4.3707 14.7657 4.57482 14.8588 4.79947C14.952 5.02411 15 5.26489 15 5.50805C15 5.7512 14.952 5.99198 14.8588 6.21663C14.7657 6.44128 14.6291 6.6454 14.4569 6.81734L5.60593 15.655L2 16.637L2.98344 13.0365L11.8344 4.19876Z" stroke="#343031" stroke-linecap="round" stroke-linejoin="round"/>
    </symbol>
        <symbol id="icon-heart" viewBox="0 0 24 24" fill="none">
      <path d="M20.84 4.60999C20.3292 4.099 19.7228 3.69364 19.0554 3.41708C18.3879 3.14052 17.6725 2.99817 16.95 2.99817C16.2275 2.99817 15.5121 3.14052 14.8446 3.41708C14.1772 3.69364 13.5708 4.099 13.06 4.60999L12 5.66999L10.94 4.60999C9.9083 3.5783 8.50903 2.9987 7.05 2.9987C5.59096 2.9987 4.19169 3.5783 3.16 4.60999C2.1283 5.64169 1.54871 7.04096 1.54871 8.49999C1.54871 9.95903 2.1283 11.3583 3.16 12.39L4.22 13.45L12 21.23L19.78 13.45L20.84 12.39C21.351 11.8792 21.7563 11.2728 22.0329 10.6053C22.3095 9.93789 22.4518 9.22248 22.4518 8.49999C22.4518 7.77751 22.3095 7.0621 22.0329 6.39464C21.7563 5.72718 21.351 5.12075 20.84 4.60999Z" stroke="#343031" stroke-width="1.8" stroke-linecap="round" stroke-linejoin="round"/>
    </symbol>
        <symbol id="icon-credit" viewBox="0 0 24 24" fill="none">
      <path d="M21 4H3C1.89543 4 1 4.89543 1 6V18C1 19.1046 1.89543 20 3 20H21C22.1046 20 23 19.1046 23 18V6C23 4.89543 22.1046 4 21 4Z" stroke="#343031" stroke-width="1.8" stroke-linecap="round" stroke-linejoin="round"/>
<path d="M1 10H23" stroke="#343031" stroke-width="1.8" stroke-linecap="round" stroke-linejoin="round"/>
    </symbol>
        <symbol id="icon-file" viewBox="0 0 24 24" fill="none">
      <path d="M14 2H6C5.46957 2 4.96086 2.21071 4.58579 2.58579C4.21071 2.96086 4 3.46957 4 4V20C4 20.5304 4.21071 21.0391 4.58579 21.4142C4.96086 21.7893 5.46957 22 6 22H18C18.5304 22 19.0391 21.7893 19.4142 21.4142C19.7893 21.0391 20 20.5304 20 20V8L14 2Z" stroke="#343031" stroke-width="1.8" stroke-linecap="round" stroke-linejoin="round"/>
<path d="M14 2V8H20" stroke="#343031" stroke-width="1.8" stroke-linecap="round" stroke-linejoin="round"/>
<path d="M16 13H8" stroke="#343031" stroke-width="1.8" stroke-linecap="round" stroke-linejoin="round"/>
<path d="M16 17H8" stroke="#343031" stroke-width="1.8" stroke-linecap="round" stroke-linejoin="round"/>
<path d="M10 9H9H8" stroke="#343031" stroke-width="1.8" stroke-linecap="round" stroke-linejoin="round"/>
    </symbol>
        <symbol id="icon-truck" viewBox="0 0 24 24" fill="none">
      <path d="M16 3H1V16H16V3Z" stroke="#343031" stroke-width="1.8" stroke-linecap="round" stroke-linejoin="round"/>
<path d="M16 8H20L23 11V16H16V8Z" stroke="#343031" stroke-width="1.8" stroke-linecap="round" stroke-linejoin="round"/>
<path d="M5.5 21C6.88071 21 8 19.8807 8 18.5C8 17.1193 6.88071 16 5.5 16C4.11929 16 3 17.1193 3 18.5C3 19.8807 4.11929 21 5.5 21Z" stroke="#343031" stroke-width="1.8" stroke-linecap="round" stroke-linejoin="round"/>
<path d="M18.5 21C19.8807 21 21 19.8807 21 18.5C21 17.1193 19.8807 16 18.5 16C17.1193 16 16 17.1193 16 18.5C16 19.8807 17.1193 21 18.5 21Z" stroke="#343031" stroke-width="1.8" stroke-linecap="round" stroke-linejoin="round"/>
    </symbol>
        <symbol id="icon-upload" viewBox="0 0 24 24" fill="none">
      <path d="M21 15V19C21 19.5304 20.7893 20.0391 20.4142 20.4142C20.0391 20.7893 19.5304 21 19 21H5C4.46957 21 3.96086 20.7893 3.58579 20.4142C3.21071 20.0391 3 19.5304 3 19V15" stroke="#343031" stroke-width="1.8" stroke-linecap="round" stroke-linejoin="round"/>
<path d="M7 10L12 15L17 10" stroke="#343031" stroke-width="1.8" stroke-linecap="round" stroke-linejoin="round"/>
<path d="M12 15L12 3" stroke="#343031" stroke-width="1.8" stroke-linecap="round" stroke-linejoin="round"/>
    <symbol id="icon-cart" viewBox="0 0 22 22" fill="none">
      <path d="M8.24999 20.1666C8.75626 20.1666 9.16666 19.7562 9.16666 19.25C9.16666 18.7437 8.75626 18.3333 8.24999 18.3333C7.74373 18.3333 7.33333 18.7437 7.33333 19.25C7.33333 19.7562 7.74373 20.1666 8.24999 20.1666Z" stroke="#1A1818" stroke-width="1.8" stroke-linecap="round" stroke-linejoin="round"/>
<path d="M18.3333 20.1666C18.8396 20.1666 19.25 19.7562 19.25 19.25C19.25 18.7437 18.8396 18.3333 18.3333 18.3333C17.8271 18.3333 17.4167 18.7437 17.4167 19.25C17.4167 19.7562 17.8271 20.1666 18.3333 20.1666Z" stroke="#1A1818" stroke-width="1.8" stroke-linecap="round" stroke-linejoin="round"/>
<path d="M0.916672 0.916687H4.58334L7.04 13.1909C7.12383 13.6129 7.35342 13.992 7.68859 14.2618C8.02376 14.5316 8.44314 14.6749 8.87334 14.6667H17.7833C18.2135 14.6749 18.6329 14.5316 18.9681 14.2618C19.3033 13.992 19.5328 13.6129 19.6167 13.1909L21.0833 5.50002H5.5" stroke="#1A1818" stroke-width="1.8" stroke-linecap="round" stroke-linejoin="round"/>
    </symbol>
    <symbol id="icon-person" viewBox="0 0 44 44" fill="none">
      <path d="M32 32V30C32 28.9391 31.5172 27.9217 30.6578 27.1716C29.7984 26.4214 28.6328 26 27.4174 26H16.5826C15.3672 26 14.2016 26.4214 13.3422 27.1716C12.4828 27.9217 12 28.9391 12 30V32" stroke="#1A1818" stroke-width="1.8" stroke-linecap="round" stroke-linejoin="round"/>
<path d="M22 22C24.7614 22 27 19.7614 27 17C27 14.2386 24.7614 12 22 12C19.2386 12 17 14.2386 17 17C17 19.7614 19.2386 22 22 22Z" stroke="#1A1818" stroke-width="1.8" stroke-linecap="round" stroke-linejoin="round"/>
    </symbol>
  </defs>
</svg>