<svg width="19" height="19" viewBox="0 0 19 19" fill="none" xmlns="http://www.w3.org/2000/svg">
<path fill-rule="evenodd" clip-rule="evenodd" d="M1.90103 5.21655C1.90103 5.00688 2.07126 4.83691 2.28124 4.83691H15.9687C16.1787 4.83691 16.3489 5.00688 16.3489 5.21655C16.3489 5.42622 16.1787 5.59619 15.9687 5.59619H2.28124C2.07126 5.59619 1.90103 5.42622 1.90103 5.21655Z" fill="#9BAAAE"/>
<path fill-rule="evenodd" clip-rule="evenodd" d="M7.60417 2.55909C7.30165 2.55909 7.01153 2.67908 6.79762 2.89267C6.58371 3.10626 6.46354 3.39595 6.46354 3.69801V4.83693H11.7865V3.69801C11.7865 3.39595 11.6663 3.10626 11.4524 2.89267C11.2385 2.67908 10.9483 2.55909 10.6458 2.55909H7.60417ZM12.5469 4.83693V3.69801C12.5469 3.19457 12.3466 2.71176 11.9901 2.35577C11.6336 1.99979 11.15 1.7998 10.6458 1.7998H7.60417C7.09998 1.7998 6.61644 1.99979 6.25993 2.35577C5.90341 2.71176 5.70312 3.19457 5.70312 3.69801V4.83693H3.80208C3.5921 4.83693 3.42188 5.0069 3.42188 5.21657V15.8465C3.42188 16.3499 3.62216 16.8327 3.97868 17.1887C4.33519 17.5447 4.81873 17.7447 5.32292 17.7447H12.9271C13.4313 17.7447 13.9148 17.5447 14.2713 17.1887C14.6278 16.8327 14.8281 16.3499 14.8281 15.8465V5.21657C14.8281 5.0069 14.6579 4.83693 14.4479 4.83693H12.5469ZM4.18229 5.59621V15.8465C4.18229 16.1486 4.30246 16.4382 4.51637 16.6518C4.73028 16.8654 5.0204 16.9854 5.32292 16.9854H12.9271C13.2296 16.9854 13.5197 16.8654 13.7336 16.6518C13.9475 16.4382 14.0677 16.1486 14.0677 15.8465V5.59621H4.18229Z" fill="#9BAAAE"/>
<path fill-rule="evenodd" clip-rule="evenodd" d="M7.60416 8.51373C7.8803 8.51373 8.10416 8.73726 8.10416 9.01299V13.5687C8.10416 13.8444 7.8803 14.0679 7.60416 14.0679C7.32801 14.0679 7.10416 13.8444 7.10416 13.5687V9.01299C7.10416 8.73726 7.32801 8.51373 7.60416 8.51373Z" fill="#9BAAAE"/>
<path fill-rule="evenodd" clip-rule="evenodd" d="M10.6458 8.51373C10.922 8.51373 11.1458 8.73726 11.1458 9.01299V13.5687C11.1458 13.8444 10.922 14.0679 10.6458 14.0679C10.3697 14.0679 10.1458 13.8444 10.1458 13.5687V9.01299C10.1458 8.73726 10.3697 8.51373 10.6458 8.51373Z" fill="#9BAAAE"/>
</svg>
